# xmcd
# 
# Track frame offsets:
#     150
#     14149
#     29219
#     41870
#     56426
#     71100
#     89227
#     104517
#     123107
#     140250
#     155901
#     175065
# 
# Disc length: 2560
# 
# Revision: 2
# Processed by: cddbd v1.5.2PL0 Copyright (c) Steve Scherf et al.
# Submitted via: fre:ac v1.0.17
# 
DISCID=b809fe0c
DTITLE=Lilian Renaud - Le Bruit de l'Aube
DYEAR=2015
DGENRE=
TTITLE0=Il faudra vivre
TTITLE1=Pour ne plus avoir peur
TTITLE2=Promis Juré
TTITLE3=Je suis un enfant
TTITLE4=Ma prière
TTITLE5=Si tu cherches de l'or
TTITLE6=Le bruit de l'aube
TTITLE7=Nos larmes
TTITLE8=Les enfants de l'oubli
TTITLE9=Ma terre
TTITLE10=J'attends
TTITLE11=Octobre
EXTD=
EXTT0=
EXTT1=
EXTT2=
EXTT3=
EXTT4=
EXTT5=
EXTT6=
EXTT7=
EXTT8=
EXTT9=
EXTT10=
EXTT11=
PLAYORDER=
